Coordinates
version=1
nRows=24
nColumns=33
inDegrees=yes

Units are S.I. units (second, meters, Newtons, ...)
Angles are in degrees.

endheader
time	ground_thorax_rot_x	ground_thorax_rot_y	ground_thorax_rot_z	ground_thorax_tx	ground_thorax_ty	ground_thorax_tz	clav_prot_r	clav_elev_r	scapula_abduction_r	scapula_elevation_r	scapula_upward_rot_r	scapula_winging_r	shoulder_elv_r	plane_of_elev_r	axial_rot_r	elbow_flexion_r	pro_sup_r	wrist_flex_r	wrist_dev_r	clav_prot_l	clav_elev_l	scapula_abduction_l	scapula_elevation_l	scapula_upward_rot_l	scapula_winging_l	shoulder_elv_l	plane_of_elev_l	axial_rot_l	elbow_flexion_l	pro_sup_l	wrist_flex_l	wrist_dev_l	
0.8300	-1.145184	5.706544	-8.736738	-0.081127	1.018000	-0.003415	-6.934853	-16.745640	-6.786425	-9.222080	1.673600	5.936612	37.403458	0.693022	0.297914	91.422604	16.260924	15.986115	-3.903601	7.699955	-9.002694	-15.691483	-0.842653	-7.561841	3.105897	39.318333	19.247056	-2.835249	91.126529	16.592412	-6.826376	-17.427813	
0.8400	-1.036873	5.501956	-8.651682	-0.081319	1.018192	-0.003651	-6.631658	-16.367436	-6.112024	-8.980443	2.048358	5.550025	37.511412	1.051328	-0.193775	91.760235	16.158250	15.893460	-3.885974	7.549062	-9.159309	-15.409244	-0.737720	-7.650829	2.928190	39.544219	20.009478	-2.573080	90.941387	16.114158	-5.649105	-17.903519	
0.8500	-0.953376	5.294481	-8.533771	-0.081536	1.018397	-0.003927	-6.308245	-16.000693	-5.399817	-8.750934	2.426776	5.162084	37.622564	1.353836	-0.704552	92.111200	16.069107	15.815658	-3.878669	7.369817	-9.259046	-15.078732	-0.679716	-7.730614	2.750633	39.716899	20.971168	-2.213604	90.346491	15.769376	-4.174359	-18.843543	
0.8600	-0.879464	5.091084	-8.399359	-0.081760	1.018667	-0.004199	-5.994329	-15.665376	-4.693717	-8.558082	2.819288	4.792249	37.736823	1.601043	-1.217251	92.472139	16.003510	15.756682	-3.877850	7.198864	-9.377947	-14.766486	-0.601509	-7.803709	2.573928	39.877456	21.970335	-1.983809	89.585833	16.044678	-3.485560	-19.520286	
0.8700	-0.825209	4.893892	-8.240673	-0.082000	1.018979	-0.004483	-5.705450	-15.373735	-4.021854	-8.412122	3.220606	4.453666	37.860750	1.792164	-1.705616	92.836457	15.962969	15.717864	-3.876829	7.044830	-9.520885	-14.472813	-0.518223	-7.917562	2.393816	40.032610	23.112537	-1.962347	88.489440	17.620573	-4.121796	-19.532876	
0.8800	-0.780213	4.711548	-8.073152	-0.082242	1.019349	-0.004749	-5.470031	-15.126160	-3.432858	-8.313838	3.629940	4.156422	37.989129	1.963592	-2.153316	93.193357	15.942188	15.690591	-3.867124	6.935555	-9.747166	-14.237361	-0.391770	-8.108518	2.204099	40.247061	24.290846	-2.342384	87.312429	21.014019	-6.992906	-18.049381	
0.8900	-0.786963	4.545190	-7.917165	-0.082484	1.019620	-0.005089	-5.282111	-14.922493	-2.918310	-8.260821	4.043391	3.899181	38.115667	2.142246	-2.591449	93.546327	15.926683	15.660527	-3.842928	6.867025	-10.081244	-13.990737	-0.282762	-8.578930	1.954831	40.560779	26.098384	-3.349349	85.223433	28.634370	-13.617357	-13.202761	
0.9000	-0.825989	4.419493	-7.772351	-0.082748	1.019858	-0.005465	-5.151354	-14.749307	-2.495916	-8.240535	4.460251	3.678346	38.230460	2.325335	-3.034126	93.898577	15.920583	15.632395	-3.812590	6.819290	-10.467032	-13.722088	-0.209380	-9.248900	1.668330	40.997999	28.227789	-4.900746	82.813032	39.400392	-23.425551	-5.953204	
0.9100	-0.901126	4.315190	-7.640139	-0.083024	1.020034	-0.005902	-5.051528	-14.597264	-2.116353	-8.245701	4.889723	3.477158	38.339403	2.507889	-3.486253	94.254304	15.914874	15.597337	-3.776666	6.725481	-10.768253	-13.344556	-0.243838	-9.997844	1.364734	41.458069	30.611338	-6.599245	80.254541	51.649189	-34.221052	1.715173	
0.9200	-0.971509	4.233701	-7.504261	-0.083338	1.020275	-0.006303	-4.952786	-14.433907	-1.726164	-8.247866	5.340885	3.265001	38.434685	2.659852	-3.963564	94.623039	15.922709	15.568770	-3.752086	6.578729	-10.844304	-12.950373	-0.365735	-10.466161	1.153465	41.808312	32.481948	-7.868809	78.737001	60.648106	-42.455579	6.251323	
0.9300	-1.041153	4.147019	-7.391444	-0.083619	1.020540	-0.006674	-4.833797	-14.253913	-1.280933	-8.246494	5.829852	3.028374	38.509633	2.797302	-4.482974	95.014766	15.943009	15.540380	-3.730981	6.382849	-10.732461	-12.557037	-0.526230	-10.618114	1.028420	42.012120	33.877883	-8.557169	78.157833	65.611637	-46.919619	7.428279	
0.9400	-1.058140	4.067034	-7.282870	-0.083886	1.020920	-0.006942	-4.690664	-14.019245	-0.775403	-8.207170	6.360053	2.744707	38.575888	2.912153	-5.029629	95.436215	15.991629	15.532407	-3.723277	6.192492	-10.437019	-12.307810	-0.662089	-10.305202	1.055216	42.042027	34.325682	-8.472388	79.165933	64.121921	-46.187147	4.004579	
0.9500	-1.046769	3.955776	-7.169700	-0.084102	1.021370	-0.007121	-4.547228	-13.763399	-0.257371	-8.155689	6.912603	2.445086	38.636897	3.044737	-5.545280	95.850078	16.068896	15.540468	-3.711433	6.031556	-10.066847	-12.201534	-0.738055	-9.681116	1.183755	41.949575	34.123451	-7.813192	81.180644	57.975182	-41.319349	-2.249726	
0.9600	-1.021776	3.835105	-7.036229	-0.084319	1.021842	-0.007242	-4.413400	-13.476971	0.243189	-8.075360	7.464014	2.132303	38.693428	3.206367	-6.029680	96.248620	16.167059	15.564998	-3.704756	5.955063	-9.671327	-12.301335	-0.759758	-8.865430	1.414449	41.773705	33.561411	-6.813671	83.662695	48.700951	-33.952384	-9.716561	
0.9700	-1.026928	3.702985	-6.898554	-0.084505	1.022255	-0.007382	-4.314634	-13.195396	0.675009	-7.993255	7.994025	1.839532	38.739578	3.427448	-6.483728	96.620273	16.272019	15.592564	-3.690913	5.953892	-9.399412	-12.498207	-0.726431	-8.185027	1.630417	41.664295	33.313884	-6.010346	85.548445	40.720521	-27.370929	-15.001910	
0.9800	-1.044141	3.585188	-6.754938	-0.084707	1.022622	-0.007573	-4.251961	-12.915925	1.033729	-7.905274	8.498549	1.566462	38.813041	3.687476	-6.908886	96.976121	16.369280	15.627032	-3.686992	6.007881	-9.203532	-12.753691	-0.685629	-7.650526	1.833722	41.616069	33.402782	-5.457697	86.912836	34.488002	-22.229724	-17.964720	
0.9900	-1.075108	3.460122	-6.611578	-0.084914	1.022972	-0.007791	-4.209336	-12.650032	1.349115	-7.822849	8.980628	1.313235	38.910878	3.978877	-7.313460	97.315920	16.458493	15.662741	-3.691890	6.056666	-9.053291	-12.970772	-0.649610	-7.227694	1.998808	41.625656	33.737538	-5.091278	87.943660	29.919853	-18.260662	-19.173550	
1.0000	-1.103404	3.341812	-6.476574	-0.085134	1.023329	-0.008037	-4.172662	-12.389190	1.650599	-7.741016	9.451659	1.067061	39.049663	4.271127	-7.715303	97.663168	16.536879	15.701709	-3.715340	6.100175	-8.942683	-13.166280	-0.598976	-6.856115	2.138297	41.660393	34.228001	-4.842820	88.704987	26.569554	-15.438684	-19.546360	
1.0100	-1.132865	3.230357	-6.350041	-0.085340	1.023706	-0.008299	-4.147254	-12.139954	1.928523	-7.665660	9.909642	0.834243	39.214147	4.558079	-8.121567	98.025157	16.605206	15.738931	-3.755674	6.127203	-8.869790	-13.324252	-0.530060	-6.523140	2.247814	41.728211	34.814221	-4.672098	89.306481	24.160358	-13.343782	-19.443095	
1.0200	-1.153984	3.125122	-6.214919	-0.085549	1.024123	-0.008580	-4.137324	-11.909939	2.174584	-7.602983	10.351941	0.621042	39.419500	4.826507	-8.506636	98.396313	16.658806	15.772268	-3.812180	6.146209	-8.832823	-13.462007	-0.440936	-6.219204	2.335263	41.805921	35.454535	-4.555197	89.761985	22.538121	-11.907080	-19.189789	
1.0300	-1.180295	3.023770	-6.079387	-0.085776	1.024505	-0.008871	-4.114853	-11.658551	2.437830	-7.518120	10.787880	0.393690	39.627864	5.087482	-8.918330	98.791685	16.708875	15.784586	-3.890090	6.166244	-8.785441	-13.594345	-0.370445	-5.937678	2.423076	41.891827	36.170053	-4.468776	90.097974	21.327652	-10.824860	-18.890536	
1.0400	-1.207813	2.919659	-5.944424	-0.086017	1.024876	-0.009167	-4.087616	-11.402162	2.708110	-7.427091	11.220293	0.162887	39.848459	5.340044	-9.336212	99.203049	16.755869	15.776724	-3.980941	6.182989	-8.738378	-13.717142	-0.305232	-5.669698	2.505724	41.991124	36.930176	-4.397644	90.326274	20.499841	-10.098010	-18.661530	
1.0500	-1.236229	2.813699	-5.823590	-0.086263	1.025206	-0.009478	-4.048344	-11.127007	3.002423	-7.320458	11.659589	-0.083388	40.074206	5.589968	-9.782239	99.637055	16.803869	15.746945	-4.084101	6.198739	-8.681468	-13.835759	-0.251875	-5.409279	2.589208	42.103081	37.739529	-4.334383	90.483038	19.864637	-9.549862	-18.488009	
1.0600	-1.263082	2.696315	-5.701137	-0.086511	1.025540	-0.009798	-4.009121	-10.857540	3.297908	-7.218435	12.097667	-0.325593	40.311942	5.832253	-10.224954	100.075442	16.849725	15.700141	-4.186813	6.206186	-8.630504	-13.939262	-0.195467	-5.154291	2.663712	42.225410	38.557597	-4.269671	90.585400	19.466130	-9.221583	-18.397560	
